<?xml version="1.0" encoding="UTF-8" standalone="no"?>
<!-- Generator: Gravit.io --><svg xmlns="http://www.w3.org/2000/svg" xmlns:xlink="http://www.w3.org/1999/xlink"
    style="isolation:isolate" viewBox="469.1 195.1 564.09 124.35" width="564.09pt" height="124.35pt">
    <defs>
        <clipPath id="_clipPath_hTxPYcy7KvFo5nwAprpYsSzavS07qQZu">
            <rect x="469.1" y="195.1" width="564.09" height="124.35" />
        </clipPath>
    </defs>
    <g clip-path="url(#_clipPath_hTxPYcy7KvFo5nwAprpYsSzavS07qQZu)">
        <path
            d=" M 748.19 317.8 L 719.69 196.3 L 730.64 196.3 L 753.59 296.95 L 775.19 196.3 L 785.99 196.3 L 758.54 317.8 L 748.19 317.8 Z  M 812.09 317.8 L 812.09 196.3 L 838.49 196.3 L 838.49 196.3 Q 856.49 196.3 863.99 205.525 L 863.99 205.525 L 863.99 205.525 Q 871.49 214.75 871.49 232 L 871.49 232 L 871.49 280.3 L 871.49 280.3 Q 871.49 298.45 864.215 308.125 L 864.215 308.125 L 864.215 308.125 Q 856.94 317.8 839.54 317.8 L 839.54 317.8 L 812.09 317.8 Z  M 823.49 309.25 L 838.79 309.25 L 838.79 309.25 Q 847.94 309.25 852.515 305.425 L 852.515 305.425 L 852.515 305.425 Q 857.09 301.6 858.44 295.225 L 858.44 295.225 L 858.44 295.225 Q 859.79 288.85 859.79 278.5 L 859.79 278.5 L 859.79 233.2 L 859.79 233.2 Q 859.79 223.3 858.14 217.375 L 858.14 217.375 L 858.14 217.375 Q 856.49 211.45 851.84 208.3 L 851.84 208.3 L 851.84 208.3 Q 847.19 205.15 838.34 205.15 L 838.34 205.15 L 823.49 205.15 L 823.49 309.25 Z  M 902.09 317.8 L 902.09 196.3 L 946.04 196.3 L 946.04 205.15 L 913.64 205.15 L 913.64 250.75 L 940.04 250.75 L 940.04 259.15 L 913.64 259.15 L 913.64 309.25 L 946.34 309.25 L 946.34 317.8 L 902.09 317.8 Z  M 995.39 317.8 L 966.89 196.3 L 977.84 196.3 L 1000.79 296.95 L 1022.39 196.3 L 1033.19 196.3 L 1005.74 317.8 L 995.39 317.8 Z  M 671.93 319 L 671.93 319 Q 657.89 319 652.49 311.86 L 652.49 311.86 L 652.49 311.86 Q 647.09 304.72 647.09 291.28 L 647.09 291.28 L 647.09 220.6 L 655.97 220.6 L 655.97 291.52 L 655.97 291.52 Q 655.97 301.12 659.39 306.4 L 659.39 306.4 L 659.39 306.4 Q 662.81 311.68 671.93 311.68 L 671.93 311.68 L 671.93 311.68 Q 680.69 311.68 684.29 306.34 L 684.29 306.34 L 684.29 306.34 Q 687.89 301 687.89 291.52 L 687.89 291.52 L 687.89 220.6 L 696.65 220.6 L 696.65 291.28 L 696.65 291.28 Q 696.65 304.48 691.07 311.74 L 691.07 311.74 L 691.07 311.74 Q 685.49 319 671.93 319 L 671.93 319 Z  M 499.1 319.45 L 499.1 319.45 Q 482.75 319.45 475.925 309.475 L 475.925 309.475 L 475.925 309.475 Q 469.1 299.5 469.1 280.75 L 469.1 280.75 L 469.1 233.35 L 469.1 233.35 Q 469.1 214.45 475.85 204.775 L 475.85 204.775 L 475.85 204.775 Q 482.6 195.1 499.85 195.1 L 499.85 195.1 L 499.85 195.1 Q 515.6 195.1 522.425 203.875 L 522.425 203.875 L 522.425 203.875 Q 529.25 212.65 529.25 230.05 L 529.25 230.05 L 529.25 234.25 L 518.45 234.25 L 518.45 230.05 L 518.45 230.05 Q 518.45 216.4 514.55 210.325 L 514.55 210.325 L 514.55 210.325 Q 510.65 204.25 500 204.25 L 500 204.25 L 500 204.25 Q 492.05 204.25 487.775 207.7 L 487.775 207.7 L 487.775 207.7 Q 483.5 211.15 482.075 217.075 L 482.075 217.075 L 482.075 217.075 Q 480.65 223 480.65 232.15 L 480.65 232.15 L 480.65 282.1 L 480.65 282.1 Q 480.65 296.35 484.775 303.25 L 484.775 303.25 L 484.775 303.25 Q 488.9 310.15 500.15 310.15 L 500.15 310.15 L 500.15 310.15 Q 510.8 310.15 515 303.175 L 515 303.175 L 515 303.175 Q 517.1 299.688 518.15 294.344 C 518.85 290.781 519.2 286.6 519.2 281.8 L 519.2 281.8 L 519.2 267.55 L 501.2 267.55 L 501.2 259 L 529.7 259 L 529.7 317.8 L 522.35 317.8 L 521 304 L 521 304 Q 518.45 311.35 513.2 315.4 L 513.2 315.4 L 513.2 315.4 Q 507.95 319.45 499.1 319.45 L 499.1 319.45 Z  M 561.5 317.8 L 561.5 196.3 L 588.95 196.3 L 588.95 196.3 Q 605.3 196.3 612.2 204.175 L 612.2 204.175 L 612.2 204.175 Q 619.1 212.05 619.1 227.2 L 619.1 227.2 L 619.1 227.2 Q 619.1 238.75 615.35 246.25 L 615.35 246.25 L 615.35 246.25 Q 611.6 253.75 602.3 255.7 L 602.3 255.7 L 620.9 317.8 L 609.8 317.8 L 591.95 258.1 L 572.9 258.1 L 572.9 317.8 L 561.5 317.8 Z  M 572.9 249.7 L 588.35 249.7 L 588.35 249.7 Q 599.3 249.7 603.65 244.3 L 603.65 244.3 L 603.65 244.3 Q 608 238.9 608 227.2 L 608 227.2 L 608 227.2 Q 608 215.35 603.875 210.1 L 603.875 210.1 L 603.875 210.1 Q 599.75 204.85 588.65 204.85 L 588.65 204.85 L 572.9 204.85 L 572.9 249.7 Z "
            fill="rgb(255,255,255)" />
        <rect x="647" y="199" width="50" height="5" transform="matrix(1,0,0,1,0,0)" fill="rgb(239,51,64)" />
    </g>
</svg>